<svg viewBox="0 0 1440 900" xmlns="http://www.w3.org/2000/svg">
<defs>
  <radialGradient id="bg" cx="50%" cy="50%" r="80%">
    <stop offset="0%" stop-color="#060c14"/>
    <stop offset="100%" stop-color="#020408"/>
  </radialGradient>
  <radialGradient id="glow" cx="50%" cy="50%" r="70%">
    <stop offset="0%" stop-color="#0ea5e9" stop-opacity=".14"/>
    <stop offset="100%" stop-color="#0ea5e9" stop-opacity="0"/>
  </radialGradient>
</defs>
<rect width="1440" height="900" fill="url(#bg)"/>
<rect width="1440" height="900" fill="url(#glow)"/>
<!-- Dense star field — navigation map -->
<g fill="white">
  <circle cx="72" cy="43" r="1.2" opacity=".9"/><circle cx="498" cy="67" r="1.5" opacity=".8"/><circle cx="923" cy="55" r="1.3" opacity=".9"/><circle cx="1372" cy="48" r="1.1" opacity=".8"/>
  <circle cx="177" cy="145" r="1.4" opacity=".9"/><circle cx="612" cy="138" r="1.2" opacity=".8"/><circle cx="1055" cy="133" r="1" opacity=".7"/><circle cx="1289" cy="118" r="1.3" opacity=".8"/>
  <circle cx="58" cy="224" r="1.1" opacity=".8"/><circle cx="462" cy="238" r="1.4" opacity=".9"/><circle cx="912" cy="229" r="1" opacity=".8"/><circle cx="1132" cy="212" r="1.5" opacity=".9"/>
  <circle cx="312" cy="334" r="1.3" opacity=".8"/><circle cx="758" cy="326" r="1.5" opacity=".7"/><circle cx="1203" cy="329" r="1.2" opacity=".8"/>
  <circle cx="21" cy="412" r="1.2" opacity=".8"/><circle cx="648" cy="421" r="1.1" opacity=".7"/><circle cx="1094" cy="428" r="1.3" opacity=".9"/>
  <circle cx="284" cy="502" r="1.5" opacity=".9"/><circle cx="733" cy="508" r="1.2" opacity=".8"/><circle cx="1178" cy="504" r="1.4" opacity=".9"/>
  <circle cx="483" cy="611" r="1.5" opacity=".9"/><circle cx="932" cy="617" r="1.2" opacity=".8"/><circle cx="1376" cy="614" r="1.4" opacity=".9"/>
  <circle cx="305" cy="703" r="1.3" opacity=".8"/><circle cx="752" cy="708" r="1.5" opacity=".7"/><circle cx="1197" cy="705" r="1.2" opacity=".8"/>
  <circle cx="472" cy="818" r="1.4" opacity=".9"/><circle cx="921" cy="823" r="1" opacity=".8"/><circle cx="1143" cy="837" r="1.5" opacity=".9"/>
  <circle cx="387" cy="88" r="1.3" opacity=".8"/><circle cx="842" cy="91" r="1.5" opacity=".9"/><circle cx="1296" cy="89" r=".9" opacity=".8"/>
  <circle cx="130" cy="178" r="1.4" opacity=".9"/><circle cx="586" cy="181" r=".9" opacity=".6"/><circle cx="1271" cy="164" r="1.5" opacity=".9"/>
  <circle cx="215" cy="28" r=".8" opacity=".7"/><circle cx="701" cy="19" r="1" opacity=".6"/><circle cx="1148" cy="33" r=".9" opacity=".7"/>
  <!-- Extra background stars for space feel -->
  <circle cx="140" cy="320" r=".7" opacity=".5"/><circle cx="380" cy="440" r=".6" opacity=".4"/><circle cx="660" cy="560" r=".8" opacity=".5"/>
  <circle cx="900" cy="380" r=".7" opacity=".4"/><circle cx="1060" cy="640" r=".6" opacity=".5"/><circle cx="1350" cy="280" r=".8" opacity=".4"/>
  <circle cx="520" cy="750" r=".7" opacity=".5"/><circle cx="820" cy="760" r=".6" opacity=".4"/><circle cx="200" cy="650" r=".8" opacity=".5"/>
  <circle cx="1180" cy="840" r=".7" opacity=".4"/><circle cx="60" cy="550" r=".6" opacity=".5"/><circle cx="1400" cy="680" r=".8" opacity=".4"/>
</g>
<!-- Jump lane connections -->
<g stroke="#0ea5e9" stroke-width=".8" opacity=".3" stroke-dasharray="8 4">
  <line x1="720" y1="450" x2="280" y2="180"/><line x1="720" y1="450" x2="560" y2="140"/>
  <line x1="720" y1="450" x2="960" y2="130"/><line x1="720" y1="450" x2="1180" y2="220"/>
  <line x1="720" y1="450" x2="1300" y2="480"/><line x1="720" y1="450" x2="1100" y2="700"/>
  <line x1="720" y1="450" x2="720" y2="760"/><line x1="720" y1="450" x2="340" y2="700"/>
  <line x1="720" y1="450" x2="160" y2="500"/><line x1="720" y1="450" x2="220" y2="320"/>
  <!-- Secondary lanes -->
  <line x1="280" y1="180" x2="560" y2="140"/><line x1="960" y1="130" x2="1180" y2="220"/>
  <line x1="1300" y1="480" x2="1100" y2="700"/><line x1="340" y1="700" x2="160" y2="500"/>
  <line x1="160" y1="500" x2="220" y2="320"/>
</g>
<!-- Star systems — outer -->
<g fill="#7dd3fc" opacity=".6">
  <circle cx="280" cy="180" r="5"/><circle cx="560" cy="140" r="4"/>
  <circle cx="960" cy="130" r="5"/><circle cx="1180" cy="220" r="4"/>
  <circle cx="1300" cy="480" r="5"/><circle cx="1100" cy="700" r="4"/>
  <circle cx="720" cy="760" r="5"/><circle cx="340" cy="700" r="4"/>
  <circle cx="160" cy="500" r="5"/><circle cx="220" cy="320" r="4"/>
</g>
<!-- System halos -->
<g fill="none" stroke="#0ea5e9" opacity=".2">
  <circle cx="280" cy="180" r="14"/><circle cx="960" cy="130" r="14"/>
  <circle cx="1300" cy="480" r="14"/><circle cx="720" cy="760" r="14"/>
  <circle cx="160" cy="500" r="14"/>
</g>
<!-- Central system — Stanton-like -->
<circle cx="720" cy="450" r="12" fill="#38bdf8" opacity=".8"/>
<circle cx="720" cy="450" r="22" fill="none" stroke="#0ea5e9" stroke-width="1.5" opacity=".45"/>
<circle cx="720" cy="450" r="35" fill="none" stroke="#0ea5e9" stroke-width=".8" opacity=".25"/>
<circle cx="720" cy="450" r="50" fill="none" stroke="#0ea5e9" stroke-width=".5" opacity=".15"/>
<!-- Navigation grid overlay -->
<g stroke="#0ea5e9" stroke-width=".3" opacity=".1">
  <line x1="0" y1="150" x2="1440" y2="150"/><line x1="0" y1="300" x2="1440" y2="300"/>
  <line x1="0" y1="450" x2="1440" y2="450"/><line x1="0" y1="600" x2="1440" y2="600"/>
  <line x1="0" y1="750" x2="1440" y2="750"/>
  <line x1="144" y1="0" x2="144" y2="900"/><line x1="288" y1="0" x2="288" y2="900"/>
  <line x1="432" y1="0" x2="432" y2="900"/><line x1="576" y1="0" x2="576" y2="900"/>
  <line x1="720" y1="0" x2="720" y2="900"/><line x1="864" y1="0" x2="864" y2="900"/>
  <line x1="1008" y1="0" x2="1008" y2="900"/><line x1="1152" y1="0" x2="1152" y2="900"/>
  <line x1="1296" y1="0" x2="1296" y2="900"/>
</g>
<!-- Corner HUD -->
<path d="M60,60 L60,30 L90,30" fill="none" stroke="#0ea5e9" stroke-width="1.5" opacity=".55"/>
<path d="M1380,60 L1380,30 L1350,30" fill="none" stroke="#0ea5e9" stroke-width="1.5" opacity=".55"/>
<path d="M60,840 L60,870 L90,870" fill="none" stroke="#0ea5e9" stroke-width="1.5" opacity=".55"/>
<path d="M1380,840 L1380,870 L1350,870" fill="none" stroke="#0ea5e9" stroke-width="1.5" opacity=".55"/>
</svg>
