<svg viewBox="0 0 1440 900" xmlns="http://www.w3.org/2000/svg">
<defs>
  <radialGradient id="bg" cx="50%" cy="70%" r="80%">
    <stop offset="0%" stop-color="#060e1c"/>
    <stop offset="100%" stop-color="#020508"/>
  </radialGradient>
  <radialGradient id="glow" cx="50%" cy="75%" r="55%">
    <stop offset="0%" stop-color="#3b82f6" stop-opacity=".22"/>
    <stop offset="100%" stop-color="#3b82f6" stop-opacity="0"/>
  </radialGradient>
  <radialGradient id="pad" cx="50%" cy="50%" r="50%">
    <stop offset="0%" stop-color="#1e40af" stop-opacity=".3"/>
    <stop offset="70%" stop-color="#1e3a8a" stop-opacity=".1"/>
    <stop offset="100%" stop-color="#1e3a8a" stop-opacity="0"/>
  </radialGradient>
</defs>
<rect width="1440" height="900" fill="url(#bg)"/>
<rect width="1440" height="900" fill="url(#glow)"/>
<!-- Stars through open bay -->
<g fill="white" opacity=".88"><circle cx="72" cy="43" r="1.2"/><circle cx="498" cy="67" r="1.5"/><circle cx="923" cy="55" r="1.3"/><circle cx="1372" cy="48" r="1.1"/><circle cx="177" cy="145" r="1.4"/><circle cx="612" cy="138" r="1.2"/><circle cx="1055" cy="133" r="1"/><circle cx="1289" cy="118" r="1.3"/><circle cx="58" cy="224" r="1.1"/><circle cx="462" cy="238" r="1.4"/><circle cx="912" cy="229" r="1"/><circle cx="1132" cy="212" r="1.5"/><circle cx="312" cy="334" r="1.3"/><circle cx="758" cy="326" r="1.5"/><circle cx="1203" cy="329" r="1.2"/><circle cx="215" cy="28" r=".8"/><circle cx="701" cy="19" r="1"/><circle cx="1148" cy="33" r=".9"/><circle cx="387" cy="88" r="1.3"/><circle cx="842" cy="91" r="1.5"/><circle cx="1296" cy="89" r=".9"/><circle cx="130" cy="178" r="1.4"/><circle cx="586" cy="181" r=".9"/><circle cx="1271" cy="164" r="1.5"/></g>
<!-- Hangar ceiling structure -->
<rect x="0" y="0" width="1440" height="180" fill="#08101e" opacity=".95"/>
<line x1="0" y1="180" x2="1440" y2="180" stroke="#3b82f6" stroke-width="1" opacity=".3"/>
<!-- Ceiling ribs -->
<g stroke="#0f1e35" stroke-width="12" opacity=".9">
  <line x1="0" y1="0" x2="0" y2="180"/><line x1="160" y1="0" x2="160" y2="180"/>
  <line x1="320" y1="0" x2="320" y2="180"/><line x1="480" y1="0" x2="480" y2="180"/>
  <line x1="640" y1="0" x2="640" y2="180"/><line x1="800" y1="0" x2="800" y2="180"/>
  <line x1="960" y1="0" x2="960" y2="180"/><line x1="1120" y1="0" x2="1120" y2="180"/>
  <line x1="1280" y1="0" x2="1280" y2="180"/><line x1="1440" y1="0" x2="1440" y2="180"/>
</g>
<!-- Hangar side walls -->
<rect x="0" y="0" width="100" height="900" fill="#07101e" opacity=".97"/>
<rect x="1340" y="0" width="100" height="900" fill="#07101e" opacity=".97"/>
<line x1="100" y1="0" x2="100" y2="900" stroke="#3b82f6" stroke-width="1" opacity=".25"/>
<line x1="1340" y1="0" x2="1340" y2="900" stroke="#3b82f6" stroke-width="1" opacity=".25"/>
<!-- Landing pad — main circle -->
<ellipse cx="720" cy="720" rx="280" ry="60" fill="url(#pad)"/>
<ellipse cx="720" cy="720" rx="280" ry="60" fill="none" stroke="#3b82f6" stroke-width="2" opacity=".5"/>
<ellipse cx="720" cy="720" rx="220" ry="47" fill="none" stroke="#3b82f6" stroke-width="1" opacity=".35"/>
<ellipse cx="720" cy="720" rx="160" ry="34" fill="none" stroke="#3b82f6" stroke-width="1.5" opacity=".4"/>
<ellipse cx="720" cy="720" rx="80" ry="17" fill="none" stroke="#60a5fa" stroke-width="1.5" opacity=".55"/>
<!-- Landing pad cross -->
<line x1="440" y1="720" x2="1000" y2="720" stroke="#3b82f6" stroke-width=".8" opacity=".4"/>
<line x1="720" y1="660" x2="720" y2="780" stroke="#3b82f6" stroke-width=".8" opacity=".4"/>
<!-- Runway lights left -->
<g fill="#60a5fa" opacity=".7">
  <circle cx="130" cy="730" r="4"/><circle cx="180" cy="726" r="4"/><circle cx="230" cy="722" r="4"/>
  <circle cx="280" cy="719" r="4"/><circle cx="330" cy="718" r="4"/><circle cx="380" cy="718" r="4"/>
  <circle cx="430" cy="718" r="4"/><circle cx="480" cy="719" r="3"/>
</g>
<!-- Runway lights right -->
<g fill="#60a5fa" opacity=".7">
  <circle cx="960" cy="719" r="3"/><circle cx="1010" cy="718" r="4"/><circle cx="1060" cy="718" r="4"/>
  <circle cx="1110" cy="718" r="4"/><circle cx="1160" cy="719" r="4"/><circle cx="1210" cy="722" r="4"/>
  <circle cx="1260" cy="726" r="4"/><circle cx="1310" cy="730" r="4"/>
</g>
<!-- Ship silhouette center -->
<ellipse cx="720" cy="560" rx="110" ry="28" fill="#0a1628" opacity=".9"/>
<polygon points="720,490 780,580 660,580" fill="#0c1c30" opacity=".85"/>
<ellipse cx="720" cy="580" rx="130" ry="18" fill="#0c1c30" opacity=".8"/>
<rect x="690" y="490" width="60" height="12" fill="#0c1c30" opacity=".7"/>
<!-- Engine glow -->
<ellipse cx="670" cy="578" rx="18" ry="8" fill="#3b82f6" opacity=".4"/>
<ellipse cx="770" cy="578" rx="18" ry="8" fill="#3b82f6" opacity=".4"/>
<!-- Tech lines on walls -->
<g stroke="#1d4ed8" stroke-width=".5" opacity=".2">
  <line x1="20" y1="220" x2="20" y2="860"/><line x1="40" y1="220" x2="40" y2="860"/>
  <line x1="60" y1="220" x2="60" y2="860"/><line x1="80" y1="220" x2="80" y2="860"/>
  <line x1="1360" y1="220" x2="1360" y2="860"/><line x1="1380" y1="220" x2="1380" y2="860"/>
  <line x1="1400" y1="220" x2="1400" y2="860"/><line x1="1420" y1="220" x2="1420" y2="860"/>
</g>
</svg>
