<svg viewBox="0 0 1440 900" xmlns="http://www.w3.org/2000/svg">
<defs>
  <radialGradient id="bg" cx="50%" cy="50%" r="80%">
    <stop offset="0%" stop-color="#0f0606"/>
    <stop offset="100%" stop-color="#040202"/>
  </radialGradient>
  <radialGradient id="glow" cx="50%" cy="50%" r="50%">
    <stop offset="0%" stop-color="#ef4444" stop-opacity=".18"/>
    <stop offset="100%" stop-color="#ef4444" stop-opacity="0"/>
  </radialGradient>
</defs>
<rect width="1440" height="900" fill="url(#bg)"/>
<rect width="1440" height="900" fill="url(#glow)"/>
<!-- Stars -->
<g fill="white" opacity=".7"><circle cx="72" cy="43" r="1.2"/><circle cx="498" cy="67" r="1.5"/><circle cx="923" cy="55" r="1.3"/><circle cx="1372" cy="48" r="1.1"/><circle cx="177" cy="145" r="1.4"/><circle cx="612" cy="138" r="1.2"/><circle cx="1055" cy="133" r="1"/><circle cx="1289" cy="118" r="1.3"/><circle cx="215" cy="28" r=".8"/><circle cx="701" cy="19" r="1"/><circle cx="1148" cy="33" r=".9"/></g>
<!-- Tactical grid -->
<g stroke="#ef4444" stroke-width=".4" opacity=".15">
  <line x1="0" y1="100" x2="1440" y2="100"/><line x1="0" y1="200" x2="1440" y2="200"/>
  <line x1="0" y1="300" x2="1440" y2="300"/><line x1="0" y1="400" x2="1440" y2="400"/>
  <line x1="0" y1="500" x2="1440" y2="500"/><line x1="0" y1="600" x2="1440" y2="600"/>
  <line x1="0" y1="700" x2="1440" y2="700"/><line x1="0" y1="800" x2="1440" y2="800"/>
  <line x1="100" y1="0" x2="100" y2="900"/><line x1="200" y1="0" x2="200" y2="900"/>
  <line x1="300" y1="0" x2="300" y2="900"/><line x1="400" y1="0" x2="400" y2="900"/>
  <line x1="500" y1="0" x2="500" y2="900"/><line x1="600" y1="0" x2="600" y2="900"/>
  <line x1="700" y1="0" x2="700" y2="900"/><line x1="800" y1="0" x2="800" y2="900"/>
  <line x1="900" y1="0" x2="900" y2="900"/><line x1="1000" y1="0" x2="1000" y2="900"/>
  <line x1="1100" y1="0" x2="1100" y2="900"/><line x1="1200" y1="0" x2="1200" y2="900"/>
  <line x1="1300" y1="0" x2="1300" y2="900"/><line x1="1400" y1="0" x2="1400" y2="900"/>
</g>
<!-- Main reticle -->
<circle cx="720" cy="450" r="200" fill="none" stroke="#ef4444" stroke-width="1.5" opacity=".45"/>
<circle cx="720" cy="450" r="150" fill="none" stroke="#ef4444" stroke-width=".8" opacity=".3"/>
<circle cx="720" cy="450" r="80" fill="none" stroke="#ef4444" stroke-width="1.2" opacity=".5"/>
<circle cx="720" cy="450" r="20" fill="none" stroke="#ef4444" stroke-width="2" opacity=".65"/>
<!-- Cross hairs long -->
<line x1="0" y1="450" x2="520" y2="450" stroke="#ef4444" stroke-width=".8" opacity=".4"/>
<line x1="920" y1="450" x2="1440" y2="450" stroke="#ef4444" stroke-width=".8" opacity=".4"/>
<line x1="720" y1="0" x2="720" y2="250" stroke="#ef4444" stroke-width=".8" opacity=".4"/>
<line x1="720" y1="650" x2="720" y2="900" stroke="#ef4444" stroke-width=".8" opacity=".4"/>
<!-- Reticle tick marks -->
<line x1="520" y1="450" x2="540" y2="450" stroke="#ef4444" stroke-width="2" opacity=".7"/>
<line x1="900" y1="450" x2="920" y2="450" stroke="#ef4444" stroke-width="2" opacity=".7"/>
<line x1="720" y1="250" x2="720" y2="270" stroke="#ef4444" stroke-width="2" opacity=".7"/>
<line x1="720" y1="630" x2="720" y2="650" stroke="#ef4444" stroke-width="2" opacity=".7"/>
<!-- Diagonal targeting lines -->
<line x1="576" y1="306" x2="596" y2="326" stroke="#ef4444" stroke-width="1.5" opacity=".55"/>
<line x1="864" y1="306" x2="844" y2="326" stroke="#ef4444" stroke-width="1.5" opacity=".55"/>
<line x1="576" y1="594" x2="596" y2="574" stroke="#ef4444" stroke-width="1.5" opacity=".55"/>
<line x1="864" y1="594" x2="844" y2="574" stroke="#ef4444" stroke-width="1.5" opacity=".55"/>
<!-- Data readout panels -->
<rect x="30" y="300" width="180" height="120" fill="#1a0404" stroke="#ef4444" stroke-width=".8" opacity=".6"/>
<line x1="30" y1="320" x2="210" y2="320" stroke="#ef4444" stroke-width=".5" opacity=".4"/>
<rect x="35" y="328" width="80" height="6" rx="1" fill="#ef4444" opacity=".3"/>
<rect x="35" y="342" width="120" height="6" rx="1" fill="#ef4444" opacity=".2"/>
<rect x="35" y="356" width="60" height="6" rx="1" fill="#ef4444" opacity=".25"/>
<rect x="35" y="370" width="100" height="6" rx="1" fill="#ef4444" opacity=".2"/>
<rect x="35" y="384" width="140" height="6" rx="1" fill="#ef4444" opacity=".15"/>
<rect x="35" y="398" width="80" height="6" rx="1" fill="#ef4444" opacity=".2"/>
<rect x="1230" y="300" width="180" height="120" fill="#1a0404" stroke="#ef4444" stroke-width=".8" opacity=".6"/>
<line x1="1230" y1="320" x2="1410" y2="320" stroke="#ef4444" stroke-width=".5" opacity=".4"/>
<rect x="1235" y="328" width="100" height="6" rx="1" fill="#ef4444" opacity=".3"/>
<rect x="1235" y="342" width="60" height="6" rx="1" fill="#ef4444" opacity=".2"/>
<rect x="1235" y="356" width="140" height="6" rx="1" fill="#ef4444" opacity=".25"/>
<rect x="1235" y="370" width="80" height="6" rx="1" fill="#ef4444" opacity=".2"/>
<rect x="1235" y="384" width="120" height="6" rx="1" fill="#ef4444" opacity=".15"/>
<!-- Corner brackets -->
<path d="M60,60 L60,30 L90,30" fill="none" stroke="#ef4444" stroke-width="1.8" opacity=".6"/>
<path d="M1380,60 L1380,30 L1350,30" fill="none" stroke="#ef4444" stroke-width="1.8" opacity=".6"/>
<path d="M60,840 L60,870 L90,870" fill="none" stroke="#ef4444" stroke-width="1.8" opacity=".6"/>
<path d="M1380,840 L1380,870 L1350,870" fill="none" stroke="#ef4444" stroke-width="1.8" opacity=".6"/>
<!-- Warning stripes bottom -->
<rect x="0" y="870" width="1440" height="30" fill="#1a0404" opacity=".8"/>
<g stroke="#ef4444" stroke-width="1" opacity=".4">
  <line x1="0" y1="870" x2="1440" y2="870"/>
  <line x1="0" y1="900" x2="1440" y2="900"/>
</g>
</svg>
